<svg fill="none" height="24" viewBox="0 0 24 24" width="24" xmlns="http://www.w3.org/2000/svg">
    <g fill="currentColor">
        <path d="m9 16c0 .5523-.44771 1-1 1-.55228 0-1-.4477-1-1s.44772-1 1-1c.55229 0 1 .4477 1 1z"/>
        <path d="m13 16c0 .5523-.4477 1-1 1s-1-.4477-1-1 .4477-1 1-1 1 .4477 1 1z"/>
        <path d="m16 17c.5523 0 1-.4477 1-1s-.4477-1-1-1-1 .4477-1 1 .4477 1 1 1z"/>
        <path clip-rule="evenodd" d="m5.25 8v1.30277c-.22683.01595-.44062.03671-.64175.06375-.90011.12102-1.65798.37991-2.2599.98178-.60192.602-.86081 1.3598-.98183 2.2599-.11656.867-.11654 1.9693-.11652 3.3369v.1098c-.00002 1.3676-.00004 2.4699.11652 3.3369.12102.9001.37991 1.6579.98183 2.2598.60192.602 1.35979.8609 2.2599.9819.86697.1165 1.96929.1165 3.33688.1165h8.10977c1.3676 0 2.4699 0 3.3369-.1165.9001-.121 1.6579-.3799 2.2599-.9819.6019-.6019.8608-1.3597.9818-2.2598.1165-.867.1165-1.9693.1165-3.3369v-.1098c0-1.3676 0-2.4699-.1165-3.3369-.121-.9001-.3799-1.6579-.9818-2.2599-.602-.60187-1.3598-.86076-2.2599-.98178-.2012-.02704-.415-.0478-.6418-.06375v-1.30277c0-3.72792-3.0221-6.75-6.75-6.75-3.72792 0-6.75 3.02208-6.75 6.75zm6.75-5.25c-2.89949 0-5.25 2.35051-5.25 5.25v1.25344c.37349-.00345.77152-.00345 1.19499-.00344h8.10991c.4234-.00001.8216-.00001 1.1951.00344v-1.25344c0-2.89949-2.3505-5.25-5.25-5.25zm-7.19188 8.1031c-.73377.0987-1.12235.2791-1.39911.5559s-.45721.6653-.55586 1.3991c-.10156.7554-.10315 1.7565-.10315 3.1919s.00159 2.4365.10315 3.1919c.09865.7338.2791 1.1223.55586 1.3991s.66534.4572 1.39911.5559c.75535.1015 1.75647.1031 3.19188.1031h8c1.4354 0 2.4365-.0016 3.1919-.1031.7338-.0987 1.1223-.2791 1.3991-.5559s.4572-.6653.5559-1.3991c.1015-.7554.1031-1.7565.1031-3.1919s-.0016-2.4365-.1031-3.1919c-.0987-.7338-.2791-1.1223-.5559-1.3991s-.6653-.4572-1.3991-.5559c-.7554-.1015-1.7565-.1031-3.1919-.1031h-8c-1.43541 0-2.43653.0016-3.19188.1031z" fill-rule="evenodd"/>
    </g>
</svg>