<svg width="34" height="30" viewBox="0 0 34 30" fill="none" xmlns="http://www.w3.org/2000/svg">
    <path fill-rule="evenodd" clip-rule="evenodd" d="M25.3333 0C27.5434 0 29.6631 0.877974 31.2259 2.44078C32.7887 4.00358 33.6666 6.1232 33.6666 8.33333V21.6667C33.6666 23.8768 32.7887 25.9964 31.2259 27.5592C29.6631 29.122 27.5434 30 25.3333 30H1.99998C1.55795 30 1.13403 29.8244 0.821468 29.5118C0.508908 29.1993 0.333313 28.7754 0.333313 28.3333V8.33333C0.333313 6.1232 1.21129 4.00358 2.77409 2.44078C4.33689 0.877974 6.45651 0 8.66665 0H25.3333ZM12 11.6667C11.5918 11.6667 11.1978 11.8166 10.8927 12.0879C10.5876 12.3591 10.3927 12.7329 10.345 13.1383L10.3333 13.3333V16.6667C10.3338 17.0915 10.4964 17.5001 10.7881 17.8089C11.0797 18.1178 11.4782 18.3037 11.9023 18.3286C12.3264 18.3535 12.7439 18.2155 13.0697 17.9429C13.3955 17.6702 13.6048 17.2835 13.655 16.8617L13.6666 16.6667V13.3333C13.6666 12.8913 13.4911 12.4674 13.1785 12.1548C12.8659 11.8423 12.442 11.6667 12 11.6667ZM22 11.6667C21.558 11.6667 21.134 11.8423 20.8215 12.1548C20.5089 12.4674 20.3333 12.8913 20.3333 13.3333V16.6667C20.3333 17.1087 20.5089 17.5326 20.8215 17.8452C21.134 18.1577 21.558 18.3333 22 18.3333C22.442 18.3333 22.8659 18.1577 23.1785 17.8452C23.4911 17.5326 23.6666 17.1087 23.6666 16.6667V13.3333C23.6666 12.8913 23.4911 12.4674 23.1785 12.1548C22.8659 11.8423 22.442 11.6667 22 11.6667Z" fill="#00A3FF"/>
</svg>
